<mxfile host="app.diagrams.net" agent="Mozilla/5.0 (Windows NT 10.0; Win64; x64) AppleWebKit/537.36 (KHTML, like Gecko) Chrome/128.0.0.0 Safari/537.36" version="24.7.12">
  <diagram name="Page-1" id="pp4zsMSGm3yde0aFSFU2">
    <mxGraphModel dx="1211" dy="0" grid="0" gridSize="10" guides="1" tooltips="1" connect="1" arrows="1" fold="1" page="1" pageScale="1" pageWidth="850" pageHeight="1100" math="0" shadow="0">
      <root>
        <mxCell id="0" />
        <mxCell id="1" parent="0" />
        <mxCell id="eafz467g37_znqmk2-ls-13" style="edgeStyle=orthogonalEdgeStyle;rounded=0;orthogonalLoop=1;jettySize=auto;html=1;" edge="1" parent="1" source="Cyh31osEMH4GWnhgTbJj-3" target="eafz467g37_znqmk2-ls-6">
          <mxGeometry relative="1" as="geometry">
            <Array as="points">
              <mxPoint x="524" y="234" />
              <mxPoint x="358" y="234" />
            </Array>
          </mxGeometry>
        </mxCell>
        <mxCell id="Cyh31osEMH4GWnhgTbJj-3" value="" style="rounded=1;whiteSpace=wrap;html=1;fillColor=#eee0f5;strokeColor=#9673a6;strokeWidth=2;dashed=1;" parent="1" vertex="1">
          <mxGeometry x="435" y="104" width="179" height="75" as="geometry" />
        </mxCell>
        <mxCell id="eafz467g37_znqmk2-ls-4" style="edgeStyle=orthogonalEdgeStyle;rounded=1;orthogonalLoop=1;jettySize=auto;html=1;dashed=1;strokeWidth=2;curved=0;" edge="1" parent="1" source="eafz467g37_znqmk2-ls-1">
          <mxGeometry relative="1" as="geometry">
            <mxPoint x="292" y="103" as="targetPoint" />
            <Array as="points">
              <mxPoint x="216" y="139" />
              <mxPoint x="216" y="104" />
            </Array>
          </mxGeometry>
        </mxCell>
        <mxCell id="eafz467g37_znqmk2-ls-1" value="&lt;span&gt;Designer Favour&lt;br&gt;&lt;font style=&quot;font-size: 10px;&quot;&gt;favouruk05@outlook.com&lt;/font&gt;&lt;/span&gt;" style="image;html=1;image=img/lib/clip_art/people/Scientist_Woman_Black_128x128.png;fontStyle=1" vertex="1" parent="1">
          <mxGeometry x="93" y="99" width="80" height="80" as="geometry" />
        </mxCell>
        <mxCell id="eafz467g37_znqmk2-ls-6" value="" style="rounded=1;whiteSpace=wrap;html=1;fillColor=#eee0f5;strokeColor=#9673a6;strokeWidth=2;dashed=1;" vertex="1" parent="1">
          <mxGeometry x="256" y="273" width="179" height="75" as="geometry" />
        </mxCell>
        <mxCell id="eafz467g37_znqmk2-ls-7" value="" style="rounded=1;whiteSpace=wrap;html=1;fillColor=#eee0f5;strokeColor=#9673a6;strokeWidth=2;dashed=1;" vertex="1" parent="1">
          <mxGeometry x="484" y="270" width="179" height="75" as="geometry" />
        </mxCell>
        <mxCell id="eafz467g37_znqmk2-ls-9" value="Architectural design of a Ui design project" style="text;strokeColor=none;fillColor=none;html=1;fontSize=24;fontStyle=1;verticalAlign=middle;align=center;fontColor=#3a0b60;" vertex="1" parent="1">
          <mxGeometry x="183" y="28" width="525" height="40" as="geometry" />
        </mxCell>
        <mxCell id="eafz467g37_znqmk2-ls-11" value="" style="shape=image;verticalLabelPosition=bottom;labelBackgroundColor=default;verticalAlign=top;aspect=fixed;imageAspect=0;image=data:image/png,iVBORw0KGgoAAAANSUhEUgAADwAAAAhwBAMAAABikNZBAAAAD1BMVEVHcEwmhPz///8AZtqgyf7SBCkcAAAAAXRSTlMAQObYZgAAIABJREFUeNrs29FtpAAQBUFvBj45EVvkn9sl4D/D9MBWxcDqqQf24wMAAAAAAAAAAAAAAAAAAAAAAAAAAAAAAAAAAAAAAAAAAAAAAAAAAAAAAAAAAAAAAADgN6/XP+7GYwtwb5bsnr4+PbsA9y1fO3bfAf7x/AJoX+YdEhjA/DJfwIcEBjC/BAMsgQFux7vfJ5ygJTCA/KUoYAkMIH8JClgCA8hfigKWwADyl6CAJTCA/aUoYAkMcA9m62kDLIEB7C/zJ2gJDGB/KQpYAgPYX4oClsAA9peggCUwgP2lGGAJDGB/CU7QEhhgM///fW4BS2AA+0tQwBIYwP5SFLAEBtjKWj17gCUwgP1l/gQtgQF2coB+egFLYAD7S1HAEhhgIUv1/AKWwAD2l2KAJTDANg7Qb3GClsAAApiigCUwgP0lKGAJDLCKA/TbFLAEBhDABAUsgQEEMEUBS2AAAUwxwBIYwP4yf4KWwABbOEC/VwFLYAABTFHAEhhAABMUsAQGEMAUAyyBAQQwwQlaAgMIYIoClsAAApiggCUwgACmKGAJDCCACQpYAgMIYIoClsAAAphigCUwgABm/gQtgQEEMEUBS2AAAUxRwBIYQAATFLAEBjDAFAMsgQEqxumtT9ASGEAAUxSwBAYQwAQFLIEBBDBFAUtgAANMUMASGKBgmRSwBAYQwBQDLIEBBDDzJ2gJDGCAKQpYAgNMc4FWwBIYQAATFbAEBjDAFAMsgQFGuUA7QUtgAAFMV8ASGMAAExSwBAYY5AKtgCUwgACmLGAJDGCAKQpYAgNMcYE2wBIYQADTnqAlMIABpihgCQwwwwVaAUtgAANMXsASGGCEUTLAEhjAANOfoCUwwAAXaAUsgQEMMBsKWAIDXM8kKWAJDGCAWVHAEhjgai7QClgCAxhgtgywBAa4lklygpbAAAaYLQUsgQEu5QKtgCUwgAFmTwFLYIArWSQDLIEBDDCLTtASGMAAUxSwBAa4jFfAClgCAxhgdhWwBAa4ikFSwBIYwACzrIAlMIABphhgCQxwCa+AnaAlMIABZl0BS2AAA0xRwBIY4ArmSAFLYAADzMIBlsAABpjgBC2BAc7nFbAClsAABpiVBSyBAQwwRQFLYICzmSMFLIEBDDBLC1gCAxhgigGWwAAGmPkTtAQGOJdvsBSwBAYwwOwtYAkMYIAJClgCAxhgigGWwAAnskZO0BIYwACzuYAlMIABJihgCQxggCkKWAIDnMU3WApYAgMYYJYXsAQGMMAUAyyBAQww8ydoCQxggCkKWAIDGGCKApbAAKewRQpYAgMYYPYPsAQGMMAEJ2gJDGCAKQpYAgMYYIIClsAABpiigCUwgAEmKGAJDGCAKQpYAgP81csYGWAJDGCAucUJWgIDGGCKApbAAAaYooAlMIABJihgCQxggCkGWAIDGGCCE7QEBjDAFAUsgQEMMEEBS2AAA0xRwBIYwAATFLAEBjDAFAUsgQEMMMUAS2AAA8z8CVoCAxhgigKWwAAGmKKAJTCAASYoYAkMYIApBlgCAxhgghO0BAYwwBQFLIEBDDBBAUtgAANMUcASGMAAExSwBAYwwBQFLIEBDDDFAEtgAAPM/AlaAgMYYIoClsAABpiigCUwgAEmKGAJDGCAKQZYAgMYYIITtAQGMMAUBSyBAQwwQQFLYAADTFHAEhjAABMUsAQGMMAUBSyBAQwwxQBLYAADzPwJWgIDGGCKApbAAAaYooAlMIABJihgCQxggCkGWAIDGGCCE7QEBjDAFAUsgQEMMEEBH4cfFIABZr6Aj2+/KAADzHwBewsMYIAJClgCAxhgigGWwAAGmPkTtAQGMMAUBSyBAQwwRQFLYAADTFDAEhjAAFMMsAQGMMAEJ2gJDGCAKQpYAgMYYIIClsAABpiigCUwgAEmKGAJDGCAKQpYAgMYYIoBlsAABpj5E7QEBjDAFAUsgQEMMEUBS2AAA0xQwBIYwABTDLAEBjDABCdoCQxggCkKWAIDGGCCApbAAAaYooAlMIABJihgCQxggCkKWAIDGGCKAZbAAAaY+RO0BAYwwBQFLIEBDDBFAUtgAANMUMASGMAAUwywBAYwwAQnaAkMYIApClgCAxhgggKWwAAGmKKAJTCAASYoYAkMYIApClgCAxhgigGWwAAGmPkTtAQGMMAUBSyBAQwwRQFLYAADTFDAEhjAAFMMsAQGMMAEJ2gJDGCAKQpYAgMYYIIClsAABpiigCUwgAEmKGAJDGCAKQpYAgMYYIoBlsAABpj5E7QEBjDAFAUsgQEMMEUBS+D/7NlBEQAwDMMwCuMS/twGow9LHHY5dwAGmIMClsAABpiLAZbAAAaYgxO0BAYwwFwUsAQGMMBMAgMYYBoFLIEBDLAClsAABphIAUtgAANsgCUwgAGmcYKWwAAGWAFLYAADTKWAJTCAAVbAEhjAABMZYAkMYICdoCUwgAEmUsASGMAAK2AJDGCAiRSwBAYwwApYAgMYYCIFLIEBDLABlsAABpjGCXp73h2AAVbAB7w7AAOsgP0CAxhgGgXsFxjAABtgCQxggGmcoCUwgAFWwBIYwAATKWAJDGCAFbAEBjDARApYAgMG2BYpYAkMYICpDLAEBgwwTtASGMAA0yhgCQwYYBSwBAYwwEQKWAIDBhgDLIEBDDCRE7QEBgwwClgCAxhgIgUsgQEDjAKWwAAGmEgBS2DAAKOAJTCAAaYywBIYMMA4QUtgAANMo4AlMGCAUcASGMAAEylgCQwYYAywBAYwwERO0BIYMMAoYAkMYICJFLAEBgwwClgCAxhgIgUsgQEDjAKWwAAGmMoAS2DAAOMELYEBDDCNApbAgAFGAUtgAANMpIAlMGCAMcASGMAAEzlBS2DAAKOAJTCAASZSwBIYMMAoYAkMYICJFLAEBgwwClgCAxhgKgMsgQEDjBO0BAYwwDQKWAIDBhgFLIEBDDCRApbAgAHGAEtgAANM5AQtgQEDjAKWwAAGmEgBS2DAAKOAJTCAASZSwBIYMMAoYAkMYICpDLAEBgwwTtASGMAA0yhgCQwYYBSwBAYwwEQKWAIDBhgDLIEBDDCRE7QEBgwwClgCAxhgIgUsgQEDjAKWwAAGmEgBS2DAAKOAJTCAAaYywBIYMMA4QUtgAANMo4AlMGCAUcASGMAAEylgCQwYYAywBAYwwERO0BIYMMAoYAkMYICJFLAEBgwwClgCAxhgIgUsgQEDjAKWwAAGmMoAS2DAAOMELYEBDDCNApbAgAFGAUtgAANMpIAlMGCAMcASGMAAEzlBS2DAAKOAJTCAASZSwBIYMMAoYAkMYICJFLAEBgwwClgCAxhgKgMsgQEDjBO0BAYwwDQKWAIDBhgFLIEBDDCRApbAgAHGAEtgAANM5AQtgQEDjAKWwAAGmEgBS2DAAKOAJTCAASZSwBIYMMAoYAkMYICpDLAEBgwwTtASGMAA0yhgCQwYYBSwBAYwwEQKWAIDBhgDLIEBDDCRE7QEBgwwClgCAxhgIgUsgQEDjAKWwAAGmEgBS2DAAKOAJTCAAaYywBIYMMA4QUtgAANMo4AlMGCAUcASGMAAEylgCQwYYAywBAYwwERO0BIYMMAoYAkMYICJFLAEBgwwClgCAxhgIgUsgQEDjAKWwAAGmMoAS2DAAOMELYEBDDCNApbAgAFGAUtgAANMpIAlMGCAMcASGMAAEzlBS2DAAKOAJTCAASZSwBIYMMAoYAkMYICJFLAEBgwwClgCAxhgKgMsgQEDjBO0BAYwwDQKWAIDBhgFLIEBDDCRApbAgAHGAEtgAANM5AQtgQEDjAKWwAAGmEgBS2DAAKOAJTCAASZSwJs3DBhgFLAEBjDANAZYAgMGGCdoCQxggIkUsAQGDDAKWAIDGGAiBSyBAQOMAZbAAAaYxglaAgMGGAUsgQEMMJUClsCAAUYBS2AAA0ykgCUwYIBRwBIYwAATGWAJDBhgnKAlMIABJlLAEhgwwChgCQxggIkUsAQGDDAGWAIDGGAaJ2gJDBhgFLAEBjDAVApYAgMGGAUsgQEMMJEClsCAAUYBS2AAA0xkgCUwYIBxgpbAAAaYSAFLYMAAo4AlMIABJlLAEhgwwBhgCQxggGmcoCUwYIBRwBIYwABTKWAJDBhgFLAEBjDARApYAgMGGAUsgQEMMJEBlsCAAcYJWgIDGGAiBSyBAQOMApbAAAaYSAFLYMAAY4AlMIABpnGClsCAAUYBS2AAA0ylgCUwYIBRwBIYwAATKWAJDBhgFLAEBjDARAZYAgMGGCdoCQxggIkUsAQGDDAKWAIDGGAiBSyBAQOMAZbAAAaYxglaAgMGGAUsgQEMMJUClsCAAUYBS2AAA8wkMIABRgFLYMAAY4AlMIABxglaAgMGGAUsgQEMMApYAgMGGAUsgQEMMAZYAgMGGCdoCQxggEkVsAQGDDAKWAIDGGAFLIEBDDAKWAIDBhgFLIEBDDAGWAIDBhgnaAkMYIBRwBIYMMAoYAkMYIBRwBIYMMAYYAkMYICdoCUwgAFGAUtgwACjgCUwgAFGAUtgwACjgCUwgAFGAUtgwABjgCUwgAHGCVoCAwYYBSyBAQwwzQKWwIABRgFLYMAAY4AlMIABxglaAgMGGAUsgQEMMApYAgMGGAUsgQEMMApYAgMGGAUsgT87dlAEAACDMMwC/tXWA+9ExHoMQIARYBMYEGC8oE1gAAG2gE1gAAHGAjaBAQHGAjaBAQQYATaBAQHGC9oEBhBgLGATGBBgLGATGECAsYBNYECAsYBNYAABtoBNYAABRoBNYECA8YI2gQEEGAvYBAYEGAvYBAYQYCxgExgQYATYBAYQYLygTWBAgLGATWAAAbaATWAAAcYCNoEBAUaATWAAAcYL2gQGBBgBNoEBBBh+cwEAAQYBBgQYBBhAgEGAAQEGAQYQYBBgQIBBgAEEGAQYEGAQYAABBgEGBBgEGBBgEGAAAQYBBgQYBBhAgEGAAQEGAQYQYBBgQIBBgAEEGAQYEGAQYECAQYABBBgEGBBgEGAAAQYBBgQYBBhAgEGAAQEGAQYQYBBgQIBBgAEBBgEGEGAQYECAQYABBBgEGBBgEGAAAQYBBgQYBBhAgEGAAQEGAQYEGAQYQIBBgAEBBgEGEGAQYECAQYABBBgEGBBgEGAAAQYBBgQYBBgQYBBgAAEGAQYEGAQYQIBBgAEBBgEGEGAQYECAQYABBBgEGBBgEGBAgEGAAQQYBBgQYBBgAAEGAQYEGAQYQIBBgAEBBgEGEGAQYECAQYABAXaEEWAAAQYBBgQYBBhAgEGAAQEGAQYQYBBgQIBBgAEEGAQYEGAQYAABRoABBBgEGBBgEGAAAQYBBgQYBBhAgEGAAQEGAQYQYBBgQIBBgAEEGAEGEGAQYECAQYABBBgEGBBgEGAAAQYBBgQYBBhAgEGAAQEGAQYQYBBgQIBBgAEBBgEGEGAQYECAQYABBBgEGBBgEGAAAQYBBgQYBBhAgEGAAQEGAQYEGAQYQIBBgAEBBgEGEGAQYECAQYABBBgEGBBgEGAAAQYBBgQYBBgQYBBgAAEGAQYEGAQYQIBBgAEBBgEGEGAQYECAQYABBBgEGBBgEGBAgEGAAQQYBBgQYBBgAAEGAQYEGAQYQIBBgAEBBgEGEGAQYECAQYABAQYBBhBgEGBAgEGAAQQYBBgQYBBgAAEGAQYEGAQYQIBBgAEBBgEGBBgEGECAQYABAQYBBhBgEGBAgEGAAQQYBBgQYBBgAAEGAQYEGAQYEGAQYAABBgEGBBgEGECAQYABAQYBBhBgEGBAgEGAAQQYBBgQYBBgAAFGgAEEGAQYEGAQYAABBgEGBBgEGECAQYABAQYBBhBgEGBAgEGAAQQYAQYQYBBgQIBBgAEEGAQYEGAQYAABBgEGBBgEGECAQYABAQYBBhBgEGBAgEGAAQEGAQYQYBBgQIBBgAEEGAQYEGAQYAABBgEGBBgEGECAQYABAQYBBgQYBBhAgEGAAQEGAQYQYBBgQIBBgAEEGAQYEGAQYAABBgEGBBgEGBBgEGAAAQYBBgQYBBhAgEGAAQEGAQYQYBBgQIBBgAEEGAQYEGAQYECAQYABBBgEGBBgEGAAAQYBBgQYBBhAgEGAAQEGAQYQYBBgQIBBgAEBBgEGEGAQYECAQYABBBgEGBBgEGAAAQYBBgQYBBhAgEGAAQEGAQYEGAQYQIBBgAEBBgEGEGAQYECAQYABBBgEGBBgEGAAAQYBBgQYBBgQYBBgAAEGAQYEGAQYQIBBgAEBBgEGEGAQYECAQYABBBgEGBBgEGAAAUaAAQQYBBgQYBBgAAEGAQYEGAQYQIBBgAEBBgEGEGAQYECAQYABBDh27IAGgBAGgqCJGgAnJfjXhI0emclL+LC5IsAAAgwCDAgwCDCAAIMAAwIMAgwgwCDAgACDAAMIMAgwIMAgwAACjAB7AQABBgEGBBgEGECAQYABAQYBBhBgEGBAgEGAAQQYBBgQYBBgAAEGAQYEGAQYEGAQYAABBgEGBBgEGECAQYABAQYBBhBgEGBAgEGAAQQYBBgQYBBgQIBBgAEEGAQYEGAQYAABBgEGBBgEGECAQYABAQYBBhBgEGBAgEGAAQEerG61L+YTYIBfAnw2QZYAA3wSYE0TYAEGBNgCRoABLGAEWIABAbaAEWAAAUaABRgQYCdoARZgAAsYAfYCAAIswAIswIAAO0EjwAACbAELsAADAmwBI8AAFjACLMCAAAswAgzgBI0ACzAgwBawAAswgAAjwAIMCLATtAALMCDAFjACDCDAFrAACzAgwBYwAgwgwAiwAAMC7ASNAANYwAiwAAMCLMACLMAATtAIsAADAmwBC7AAAwJsASPAAAJsAQuwAAMCLMAIMIATNAIswIAAW8AIMIAAI8ACDAiwE7QACzCABYwACzAgwBawAAswIMAWMAIMIMACLMACDAiwEzQCDGABI8ACDAiwACPAAE7QCLAAAwJsAQuwAANYwAiwAAMCbAELsAADAizACDCAADtBC7AAAwJsASPAAAKMAAswIMBO0AgwgAWMAAswIMAWsAALMIAFjAALMCDAAizAAgwIsBM0AgwgwBawAAswIMACjAADOEEjwAIMCLAFjAADWMAIsAADAmwBC7AAAwgwAizAgAA7QQuwAAMCbAEjwAACLMACLMCAADtBI8AAFjACLMCAAFvACDCABYwACzAgwAIswAIM4ASNAAswIMAWsAALMCDAAowAAwiwE7QACzAgwBYwAgxgASPAAgwIsAWMAAMIMAIswIAAO0ELsAADWMAIsAADAizAAizAAE7QCDCAAFvAAizAgABbwAgwgAUsagIswIAACzACDOAEjQALMCDAFjACDCDACLAAAwLsBC3AAgxgASPAAAJsAQuwAAMCbAEjwAACLMACLMCAADtBI8AAFjACLMCAAAswAgzgBI0ACzAgwBawAAswgAWMAAswIMAWsAALMCDAAowAAwiwE7QACzAgwBYwAgwgwAiwAAMC7ASNAANYwAiwAAMCbAELsAADWMAIsAADAizAAizAgAA7QSPAAAJsAQuwAAMCLMAIMIATNAIswIAAW8AIMIAFjAALMCDAFrAACzCAACPAAgwIsBO0AAswIMCDNTEq5acSYECAQYABAQYBBhBgEGBAgEGAAQQYBBgQYBBgAAEGAQYEGAQYQIBBgAEBBgEGBBgEGECAQYABAQYBBhBgEGBAgEGAAQQYBBgQYBBgAAEGAQYEGAQYEGAQYAABBgEGBBgEGECAQYABAQYBBhBgEGBAgEGAAQQYBBgQYBBgQIBBgAEEGAQYEGAQYAABBgEGBBgEGECAQYABAQYBBhBgEGBAgEGAAQEGAQYQYBBgQIBBgAEEGAQYEGAQYAABBgEGBBgEGECAQYABAQYBBgQYBBhAgEGAAQEGAQYQYBBgQIBBgAEEGAQYEGAQYAABBgEGBBgEGBBgEGAAAQYBBgQYBBhAgEGAAQEGAQYQYBBgQIBBgAEEGAQYEGAQYAABRoABBBgEGBBgEGAAAQYBBgQYBBhAgEGAAQEGAQYQYBBgQIBBgAEEGAEGEGAQYECAQYABBBgEGBBgEGAAAQYBBgQYBBhAgEGAAQEGAQYQYBBgQIBBgAEBBgEGEGAQYECAQYABBBgEGBBgEGAAAQYBBgQYBBhAgEGAAQEGAQYEGAQYQIBBgAEBBgEGEGAQYECAQYABBBgEGBBgEGAAAQYBBgQYBBgQYBBgAAEGAQYEGAQYQIBBgAEBBgEGEGAQYECAQYABBBgEGBBgEGBAgEGAAQQYBBgQYBBgAAEGAX7s2FENACAIRdEsOovI6J/JCswvceeE4O4BCDAIMIAAgwADAgwCDCDAIMCAAIMAAwIMAgwgwCDAgACDAAMIMAgwIMAgwAACDAIMCDAIMIAAgwADAgwCDAgwCDCAAIMAAwIMAgwgwCDAgACDAAMIMAgwIMAgwAACDAIMCDAIMCDAIMAAAgwCDAgwCDCAAIMAAwIMAgwgwCDAgACDAAMIMAgwIMAgwAACjAADCDAIMCDAIMAAAgwCDAgwCDCAAIMAAwIMAgwgwCDAgACDAAMIMAIMIMAgwIAAgwADCDAIMCDAIMAAAgwCDAgwCDCAAIMAAwIMAgwgwAiwCwAIMAgwIMDviUkjQ4ABBBgBFmBAgG9pmgALMCDAFjACDGABI8ACDAiwBYwAAwgwAizAgAB7QQuwAANYwAiwCwAIsAALsAADAuwFjQADCLAFLMACDAiwBYwAA1jACLAAAwIswAgwgBc0AizAgABbwAIswAACjAALMCDAXtACLMCAAFvACDCAAFvAAizAgABbwAgwgAAjwAIMCLAXNAIMYAEjwAIMCLAAC7AAA3hBI8ACDAiwBSzAAgwIsAWMAAMIsAUswAIMCLAAI8AAXtAIsAADAmwBI8AAAowACzAgwF7QAizAABYwAizAgABbwAIswIAAW8AIMIAAC7AACzAgwF7QCDCABYwACzAgwAKMAAN4QSPAAgwIsAUswAIMYAEjwAIMCLAFLMACDAiwACPAAALsBS3AAgwIsAWMAAMIMAIswIAAe0EjwAAWMAIswIAAW8ACLMAAFjACLMCAAAuwAAswIMBe0AgwgABbwAIswIAACzACDOAFjQALMCDAFjACDGABI8ACDAiwBSzAAgwgwAiwAAMC7AUtwAIMCLAFjAADCLAAC7AAAwLsBY0AA1jACLAAAwJsASPAABYwAizAgAALsAALMIAXNAIswIAAW8ACLMCAAAswAgwgwF7QAizAgABbwAgwgAWMAAswIMAWMAIMIMAIsAADAuwFLcACDGABI8ACDAiwAAuwAAN4QSPAAAJsAQuwAAMCbAEjwAAWsKgJsAADAizACDCAFzQCLMCAAFvACDCAACPAAgwIsBe0AAswgAWMAAMIsAUswAIMCLAFjAADCLAAC7AAAwLsBY0AA1jACLAAAwIswAgwgBc0AizAgABbwAIswAAWMAIswIAAW8ACLMCAAAswAgwgwF7QAizAgABbwAgwgAAjwAIMCLAXNAIMYAEjwAIMCLAFLMACDGABI8ACDAiwAAuwAAMC7AWNAAMIsAUswAIMCLAAI8AAXtAIsAADAmwBI8AAFjACLMCAAFvAAizAABYwAizAgAAX5aKNyC3AAJ8EGAQYEGAQYAABBgEGBBgEGECAQYABAQYBBhBgBNgFAAQYBBgQYBBgAAEGAQYEGAQYQIBBgAEBBgEGEGAQYECAQYABBBgEGBBgEGBAgEGAAQQYBBgQYBBgAAEGAQYEGAQYQIBBgAEBBgEGEGAQYECAQYABAQYBBhBgEGBAgEGAAQQYBBgQYBBgAAEGAQYEGAQYQIBBgAEBBgEGBBgEGECAQYABAQYBBhBgEGBAgEGAAQQYBBgQYBBgAAEGAQYEGAQYEGAQYAABBgEGBBgEGECAQYABAQYBBhBgEGBAgEGAAQQYBBgQYBBgQIBBgAEEGAQYEGAQYAABBgEGBBgEGECAQYABAQYBBhBgEGBAgEGAAQEGAQYQYBBgQIBBgAEEGAQYEGAQYAABBgEGBBgEGECAQYABAQYBBgTYEUaAAQQYBBgQYBBgAAEGAQYEGAQYQIBBgAEBBgEGEGAQYECAQYABBBgBBhBgEGBAgEGAAQQYBBgQYBBgAAEGAQYEGAQYQIBBgAEBBgEGEGAEGECAQYABAQYBBhBgEGBAgEGAAQQYBBgQYBBgAAEGAQYEGAQYQIBBgAEBBgEGBBgEGOCwZwc1AIAwEARNYACCEQj+NdXDNeE1I4LNFQEGAQYEGAQYQIBBgAEBBgEGEGAQYECAQYABBBgEGBBgEGBAgEGAAQQYBBgQYBBgAAEGAQYEGAQYQIBBgAEBBgEGEGAQYECAQYABAQYBBhBgEGBAgEGAAQQYBBgQYBBgAAEGAQYEGAQYQIBBgAEBBgEGBBgEGECAQYABAQYBBhBgEGBAgEGAAQQYBBgQYBBgAAEGAQYEGAQYEGAQYAABBgEGBBgEGECAQYABAQYBBhBgEGBAgEGAAQQYBBgQYBBgQIBBgAEEGAQYEGAQYAABBgEGBBgEGECAQYABAQYBBhBgEGBAgEGAAQEGAQYQYBBgQIBBgAEEGAQYEGAQYAABBgEGBBgEGECAQYABAQYBBhBgBBhAgEGAAQEGAQYQYBBgQIC/G4/A0VgBBgS4ZZGYGivAgAC3XDFNbI0VYECABdgCFmAAJ2gBRoABAbaABViAAQEWYH/AAgwgwE7QFrAAAwJsAVvAAgxgAWMBCzAgwBawAAswgADjBC3AgAA7QVvAAgxgAQswAgwIsAA7QQswIMBO0BawAAMIsAVsAQswIMAWsAUswAAWMAIswIAAC7ATtAADOEFjAQswIMAWsAALMIAAO0EjwIAAO0FbwAIMCLAFbAELMIAAW8AWsAADAmwBC7AAAwgwTtACDAiwE7QFLMAAFjACLMCAAAuwE7Tn7D1XAAANVUlEQVQAAzhBW8AIMCDAFrAFLMCAAFvAFrAAAwiwBSzAAgwIsAA7QQswgBM0FrAAAwJsAQuwAAMIME7QAgwIsBO0BSzAABawBYwAAwJsAVvAAgwIsAUswAIMIMAC7AQtwIAAO0FbwAIMYAEjwAIMCLAAO0ELMIATNBawAAMCbAFbwAIMYAFbwAgwIMAWsAALMCDAAuwELcAAAuwEbQELMCDAFrAACzCAAOMELcCAADtBW8ACDGABYwELMCDAFrAFLMAAFrAAI8CAAAuwE7QAAwLsBG0BCzCAAFvAAizAgAALsBO0AAM4QWMBCzAgwBawBSzAABYwFrAAAwJsAQuwAAMIsBM0AgwIsBO0BSzAABawAAswgAALsBO0AAMC7ARtAQswgAWMBSzAgABbwBawAANYwAiwAAMCLMBO0AIM4ARtASPAgABbwAIswAAC7AQtwAAC7ARtAQswIMAWsAUswAACbAFbwAIMCLAFLMACDCDAOEELMCDATtAWsAADWMACjAADAizATtACDOAEbQEjwIAAW8AWsAADAmwBW8ACDCDAFrAACzAgwALsBC3AAE7QWMACDAiwBSzAAgwgwDhBCzAgwE7QFrAAA1jAFjACDAiwBWwBCzAgwBawAAswgAALsBO0AAMC7ARtAQswgAWMAAswIMAC7AQtwABO0FjAAgwIsAVsAQswgAVsASPAgABbwAIswIAAC7ATtAADCLATtAUswIAAW8ACLMAAAowTtAADAuwEbQELMIAFjAUswIAAW8AWsAADWMACjAADAizATtACDAiwE7QFLMAAAmwBC7AAAwIswE7QAgzgBI0FLMCAAIMAAwgwCDAgwCDAAAIMAgwIMAgwIMAgwAACDAIMCDAIMIAAgwADAgwCDCDAIMCAAIMAAwgwCDAgwCDAgACDAAMIMAgwIMAgwAACDAIMCDAIMIAAgwADAgwCDCDAIMCAAIMAAwIMAgwgwCDAgACDAAMIMAgwIMAgwAACDAIMCDAIMIAAgwADAgwCDCDACDCAAIMAAwIMAgwgwCDAgACDAAMIMAgwIMAgwAACDAIMCDAIMIAAI8AAAgwCDAgwCDCAAIMAAwIMAgwgwCDAgACDAAMIMAgwIMAgwAACjAB7AQABBgEGBBgEGECAQYABAQYBBhBgEGBAgEGAAQQYBBgQYBBgAAEGAQYEGAQYEGAQYAABBgEGBBgEGECAQYABAQYBBhBgEGBAgEGAAQQYBBgQYBBgQIBBgAEEGAQYEGAQYAABBgEGBBgEGECAQYABAQYBBhBgEGBAgEGAAQEGAQYQYBBgQIBBgAEEGAQYEGAQYAABBgEGBBgEGECAQYABAYZirw4EAAAAAAT5WydSEH/A1QHXAVcdcB1wdcB1wFUHXAdcHXAdcNUB1wFXB1wHXHXAdcDVAdcBVwdcB1x1wHXA1QHXAVcdcB1wdcB1wFUHXAdcHXAdcNUB1wFXB1wHXB1wHXDVAdcBVwdcB1x1wHXA1QHXAVcdcB1wdcB1wFUHXAdcHXAdcHXAI9wBVx1wHXB1wHXAVQdcB1wdcB1w1QHXAVcHXAdcdcB1wNUB1wFXHXAHXHXAdcDVAdcBVx1wHXB1wHXAVQdcB1wdcB1w1QHXAVcHXAdcdcAdcNUB1wFXB1wHXHXAdcDVAdcBVx1wHXB1wHXAVQdcB1wdcB1w1QHXAVcHXAdcHXAdcNUB1wFXB1wHXHXAdcDVAdcBVx1wHXB1wHXAVQdcB1wdcB1wdcB1wFUHXAdcHXAdcNUB1wFXB1wHXHXAdcDVAdcBVx1wHXB1wHXA1QHXAVcdcB1wdcB1wFUHXAdcHXAdcNUB1wFXB1wHXHXAdcDVAdcBVwdcB1x1wHXA1QHXAVcdcB1wdcB1wFUHXAdcHXAdcNUB1wFXB1wHXB1wHXDVAdcBVwdcB1x1wHXA1QHXAVcdcB1wdcB1wFUHXAdcHXAdcHXAdcBVB1wHXB1wHXDVAdcBVwdcB1x1wHXA1QHXAVcdcB1wdcB1wNUB1wFXHXAdcHXAdcBVB1wHXB1wHXDVAdcBVwdcB1x1wHXA1QHXAVcdcAdcdcB1wNUB1wFXHXAdcHXAdcBVB1wHXB1wHXDVAdcBVwdcB1x1wB1w1QHXAVcHXAdcdcB1wNUB1wFXHXAdcHXAdcBVB1wHXB1wHXDVAdcBVwdcB1wdcB1w1QHXAVcHXAdcdcB1wNUB1wFXHXAdcHXAdcBVB1wHXB1wHXB1wHXAVQdcB1wdcB1w1QHXAVcHXAdcdcB1wNUB1wFXHXAdcHXAdcDVAdcBVx1wHXB1wHXAVQdcB1wdcB1w1QHXAVcHXAdcdcB1wNUB1wFXB1wHXHXAdcDVAdcBVx1wHXB1wHXAVQdcB1wdcB1w1QHXAVcHXAdcHXAdcNUB1wFXB1wHXHXAdcDVAdcBVx1wHXB1wHXAVQdcB1wdcB1wdcB1wFUHXAdcHXAdcNUB1wFXB1wHXHXAdcDVAdcBVx1wHXB1wHXA1QHXAVcdcB1wdcB1wFUHXAdcHXAdcNUB1wFXB1wHXHXAdcDVAdcBVx1wB1x1wHXA1QHXAVcdcB1wdcB1wFUHXAdcHXAdcNUB1wFXB1wHXHXAHXDVAdcBVwdcB1x1wHXA1QHXAVcdcB1wdcB1wFUHXAdcHXAdcNUBd8ALUB1wHXB1wHXAVQdcB1wdcB1w1QHXAVcHXAdcdcB1wNUB1wFXHXAdcHXAdcDVAdcBVx1wHXB1wHXAVQdcB1wdcB1w1QHXAVcHXAdcdcB1wNUB1wFXB1wHXHXAdcDVAdcBVx1wHXB1wHXAVQdcB1wdcB1w1QHXAVcHXAdcHXAdcNUB1wFXB1wHXHXAdcDVAdcBVx1wHXB1wHXAVQdcB1wdcB1wdcB1wFUHXAdcHXAdcNUB1wFXB1wHXHXAdcDVAdcBVx1wHXB1wHXA1QHXAVcdcB1wdcB1wFUHXAdcHXAdcNUB1wFXB1wHXHXAadeObSCGYSAIQh2w/2qdKlBiiJeIMz28Fkc/AgwIMAgwIMAgwAACDAIMCDAIMIAAgwADAgwCDCDAIMCAAIMAAwgwCDAgwCDAgAB7hBFgAAEGAQYEGAQYQIBBgAEBBgEGEGAQYECAQYABBBgEGBBgEGAAAUaAAQQYBBgQYBBgAAEGAQYEGAQYQIBBgAEBBgEGEGAQYECAQYABBBgBBhBgEGBAgEGAAQQYBBgQYBBgAAEGAQYEGAQYQIBBgAEBBgEGEGAQYECAQYABAQYBBhBgEGBAgEGAAQQYBBgQYBBgAAEGAQYEGAQYQIBBgAEBBgEGBBgEGECAQYABAQYBBhBgEGBAgEGAAQQYBBgQYBBgAAEGAQYEGAQYEGAQYAABBgEGBBgEGECAQYABAQYBBhBgEGBAgEGAAQQYBBgQYBBgQIBBgAEEGAQYEGAQYAABBgEGBBgEGECAQYABAQYBBhBgEGBAgEGAAQEGAQYQYBBgQIBBgAEEGAQYEGAQYAABBgEGBBgEGECAQYABAQYBBgQYBBhAgEGAAQEGAQYQYBBgQIBBgAEEGAQYEGAQYAABBgEGBBgEGBBgEGAAAQYBBgQYBBhAgEGAAQEGAQYQYBBgQIBBgAEEGAQYEGAQYAABRoABBBgEGBBgEGCAGI8wc/n9AxYwCDBgAYMAAwgwCDAgwCDAAAIMAgwIMAgwgACDAAMCDAIMsFleYaYqv39AgEGAAQEGAQYQYBBgQIBBgAE6eIaZyq8fEGAQYECAQYABBBgEGBBgEGCAFss7zEzl1w8IMAgwIMAgwAACDAIMPMlDjP9gAQgwCDAgwCDAAAIMAgy8w7+w8B8sAAEGAQYEGAQYIMVTjE/AAAIMAgwIMAgwQIiPwPgEDCDAIMCAAIMAA6R4jPEJGECAQYABAQYBBgjxERifgAEEGAQYcIMGF2gAAQYBBgQYBBjgho/A+AQMIMAgwIAbNLhAAwgwCDDgBg0u0AACDAIMuEGDCzSAAIMAA27Q4AINIMAIMIAbNLhAAwIMAgzgBg0u0IAAgwADuEGDCzQgwCDAAG7Q4AINmMBgAAMIMAIM4AYNLtCACQwGMIAAgwADbtDgAg1gAoMBDAgwCDCAGzS4QAMmMBjAAAKMAAO4QYMLNGACgwEMYAKDAQwIMAgwgBs0uEADJjAYwAAmMBjAgAkMBjCAACPAAG7Q4AINmMBgAAOYwGAAAyYwGMAAJjAYwIAJDAYwgAkMBjBgAoMBDGACYwADmMBgAAOYwBjAACYwGMCACQwGMIAJDAYwYAKDAQygwKC/gCM0OEADmMAYwAAmMBjAACYwBjCAAoP+Ao7Q4AANYAKDAQwoMOgvgCM0OEADCgz6C+AIjQM0gAKD/gI4QuMADaDAoL+AAoP+Aigw+AAMDOA1R38BFBj0F1Bg0F8ABQb9BRQY9Bfg1vKwo78ACgwn5ZcKKDDoL0AL7zvOzwBGMJi/gBEM5i+AEYz5C2AEg/kLIMHIL4AEg/wC/OBbML79Amgwti+AazTEh6/lCwAAAAAAAAAAAAAAAAAAAAAAAAAAAAAAAAAAAAAAAAAAAAAAAAAAAAAAAAAAAAAAAJx9ESYAkxo/zo8AAAAASUVORK5CYII=;" vertex="1" parent="1">
          <mxGeometry x="435" y="91" width="51.56" height="29" as="geometry" />
        </mxCell>
        <mxCell id="eafz467g37_znqmk2-ls-15" value="Was Provided a brief for a B2B Platform d" style="text;html=1;align=center;verticalAlign=middle;whiteSpace=wrap;rounded=0;" vertex="1" parent="1">
          <mxGeometry x="461" y="126.5" width="60" height="30" as="geometry" />
        </mxCell>
        <mxCell id="eafz467g37_znqmk2-ls-16" value="Project name" style="fillColor=none;strokeColor=none;html=1;fontSize=11;fontStyle=0;align=left;fontColor=#596780;fontStyle=1;fontSize=11" vertex="1" parent="1">
          <mxGeometry x="646" y="100" width="104" height="20" as="geometry" />
        </mxCell>
        <mxCell id="eafz467g37_znqmk2-ls-17" value="Watermelon Squad" style="rounded=1;arcSize=9;fillColor=#F7F8F9;align=left;spacingLeft=5;strokeColor=#DEE1E6;html=1;strokeWidth=2;fontSize=12" vertex="1" parent="1">
          <mxGeometry x="646" y="124" width="186" height="29" as="geometry" />
        </mxCell>
      </root>
    </mxGraphModel>
  </diagram>
</mxfile>
